<svg width="202" height="398" viewBox="0 0 202 398" fill="none" xmlns="http://www.w3.org/2000/svg">
<g filter="url(#filter0_d_1315_1841)">
<mask id="path-1-inside-1_1315_1841" fill="white">
<path d="M5.98914 15.5967C5.98914 10.0738 10.4663 5.59668 15.9891 5.59668H186.107C191.63 5.59668 196.107 10.0738 196.107 15.5967V382.104C196.107 387.627 191.63 392.104 186.107 392.104H15.9891C10.4663 392.104 5.98914 387.627 5.98914 382.104V15.5967Z"/>
</mask>
<path d="M5.98914 15.5967C5.98914 10.0738 10.4663 5.59668 15.9891 5.59668H186.107C191.63 5.59668 196.107 10.0738 196.107 15.5967V382.104C196.107 387.627 191.63 392.104 186.107 392.104H15.9891C10.4663 392.104 5.98914 387.627 5.98914 382.104V15.5967Z" fill="#132039"/>
<path d="M0.989136 10.5967C0.989136 2.31241 7.70486 -4.40332 15.9891 -4.40332H186.107C194.392 -4.40332 201.107 2.31241 201.107 10.5967L191.107 15.5967C191.107 15.5967 188.869 15.5967 186.107 15.5967H15.9891C13.2277 15.5967 10.9891 15.5967 10.9891 15.5967L0.989136 10.5967ZM201.107 387.104C201.107 395.389 194.392 402.104 186.107 402.104H15.9891C7.70486 402.104 0.989136 395.389 0.989136 387.104L10.9891 382.104C10.9891 382.104 13.2277 382.104 15.9891 382.104H186.107C188.869 382.104 191.107 382.104 191.107 382.104L201.107 387.104ZM15.9891 402.104C7.70486 402.104 0.989136 395.389 0.989136 387.104V10.5967C0.989136 2.31241 7.70486 -4.40332 15.9891 -4.40332V15.5967C13.2277 15.5967 10.9891 15.5967 10.9891 15.5967V382.104C10.9891 382.104 13.2277 382.104 15.9891 382.104V402.104ZM186.107 -4.40332C194.392 -4.40332 201.107 2.31241 201.107 10.5967V387.104C201.107 395.389 194.392 402.104 186.107 402.104V382.104C188.869 382.104 191.107 382.104 191.107 382.104V15.5967C191.107 15.5967 188.869 15.5967 186.107 15.5967V-4.40332Z" fill="#6689CC" mask="url(#path-1-inside-1_1315_1841)"/>
</g>
<defs>
<filter id="filter0_d_1315_1841" x="0.989136" y="0.59668" width="200.118" height="396.508" filterUnits="userSpaceOnUse" color-interpolation-filters="sRGB">
<feFlood flood-opacity="0" result="BackgroundImageFix"/>
<feColorMatrix in="SourceAlpha" type="matrix" values="0 0 0 0 0 0 0 0 0 0 0 0 0 0 0 0 0 0 127 0" result="hardAlpha"/>
<feMorphology radius="10" operator="erode" in="SourceAlpha" result="effect1_dropShadow_1315_1841"/>
<feOffset/>
<feGaussianBlur stdDeviation="7.5"/>
<feComposite in2="hardAlpha" operator="out"/>
<feColorMatrix type="matrix" values="0 0 0 0 0.775 0 0 0 0 0.826 0 0 0 0 0.925 0 0 0 0.15 0"/>
<feBlend mode="normal" in2="BackgroundImageFix" result="effect1_dropShadow_1315_1841"/>
<feBlend mode="normal" in="SourceGraphic" in2="effect1_dropShadow_1315_1841" result="shape"/>
</filter>
</defs>
</svg>
